Coordinates
version=1
nRows=17
nColumns=36
inDegrees=yes

Units are S.I. units (second, meters, Newtons, ...)
If the header above contains a line with 'inDegrees', this indicates whether rotational values are in degrees (yes) or radians (no).

endheader
time	pelvis_tilt	pelvis_list	pelvis_rotation	pelvis_tx	pelvis_ty	pelvis_tz	hip_flexion_r	hip_adduction_r	hip_rotation_r	knee_angle_r	knee_angle_r_beta	ankle_angle_r	subtalar_angle_r	mtp_angle_r	hip_flexion_l	hip_adduction_l	hip_rotation_l	knee_angle_l	knee_angle_l_beta	ankle_angle_l	subtalar_angle_l	mtp_angle_l	lumbar_extension	lumbar_bending	lumbar_rotation	arm_flex_r	arm_add_r	arm_rot_r	elbow_flex_r	pro_sup_r	arm_flex_l	arm_add_l	arm_rot_l	elbow_flex_l	pro_sup_l
      5.53333330	     -3.59017629	     -0.77904921	      1.77484723	      0.26236122	      0.93171113	     -0.01323986	      2.19683821	     -3.25253425	     -3.21109992	      3.38710997	      0.05911622	      4.19368411	     -9.46300123	     -7.49999987	      0.80725034	     -7.04294992	     -2.77949956	      2.30789092	      0.04028030	      3.41147403	      3.69777218	     -7.49999987	      2.04615197	     -3.94046411	     -7.87256486	   -326.18997483	    -45.05823603	   -406.69719859	     61.19171858	     75.82803332	      1.58484794	    -18.19880595	    -54.66611307	     38.92537480	     84.97521874
      5.55000000	     -3.57403013	     -0.73550513	      1.64639480	      0.26250440	      0.93178193	     -0.01259328	      2.35212458	     -3.34590347	     -2.64202429	      3.58620642	      0.06259111	      4.11650818	    -10.14911189	     -7.49999987	      0.86160259	     -6.93144540	     -2.17328706	      2.37674188	      0.04148197	      3.16718953	      2.34282483	     -7.49999987	      1.73951392	     -4.16057054	     -3.44184063	   -336.43777924	    -45.58704345	   -415.15065553	     64.57810357	     75.18620425	      7.04313804	    -17.02064304	    -52.18614427	     36.16055871	     88.47681804
      5.56666670	     -3.35299604	     -0.77308683	      1.57659061	      0.26670574	      0.92975544	     -0.00853460	      2.12098994	     -3.25298576	     -2.39368472	      3.69134032	      0.06442604	      4.25881802	    -10.15164569	     -7.49999987	      0.59347440	     -7.02361290	     -2.21226531	      2.44761464	      0.04271893	      3.26394216	      2.34354868	     -7.49999987	      1.47157060	     -4.08938674	     -3.52887357	   -337.50047902	    -43.18293792	   -414.80793250	     64.00640427	     75.10019016	      6.93702053	    -16.18031197	    -52.13835763	     35.73375765	     88.52862042
      5.58333330	     -3.19200893	     -0.78387508	      1.46838064	      0.26681160	      0.93286105	     -0.00793356	      1.90998818	     -3.20477814	     -2.18346050	      3.70063261	      0.06458822	      4.27117029	    -10.21573834	     -7.49999987	      0.34896847	     -7.08862915	     -2.33994374	      2.40928338	      0.04204993	      3.28513844	      2.38183083	     -7.49999987	      1.28553930	     -4.16529275	     -3.09165790	   -339.76037087	    -40.82300418	   -415.57880826	     63.18142008	     70.91609262	      7.43685392	    -15.12849958	    -52.97313636	     34.23166230	     90.78717842
      5.60000000	     -2.99047903	     -0.78520458	      1.40286677	      0.26637679	      0.93342852	     -0.00815291	      1.62372663	     -3.16355427	     -1.99880753	      3.62930398	      0.06334330	      4.22865268	    -10.33973231	     -7.49999987	      0.12933025	     -7.11845734	     -2.25969423	      2.47100758	      0.04312722	      3.20536237	      1.99549762	     -7.49999987	      1.06116123	     -4.11721838	     -3.34088771	   -340.00966234	    -38.42396480	   -414.84059047	     61.37720663	     69.89198502	      7.10018423	    -14.40876142	    -53.03459643	     33.13093746	     88.01513675
      5.61666670	     -2.84704830	     -0.73291129	      1.28047869	      0.26651603	      0.93622310	     -0.00751823	      1.38740890	     -3.18296853	     -2.00275418	      3.49252433	      0.06095605	      4.19525695	     -9.97774613	     -7.49999987	     -0.05599594	     -7.06923387	     -2.20941756	      2.44260943	      0.04263158	      3.04495342	      1.84087931	     -7.49999987	      0.76715547	     -4.18297387	     -2.99003884	   -342.55181435	    -36.10576942	   -415.48787204	     60.90619568	     68.71040717	      7.02081872	    -13.59779418	    -52.05708311	     31.94263553	     87.89709978
      5.63333330	     -2.64633817	     -0.68074273	      1.14188624	      0.26606527	      0.93634552	     -0.00759803	      1.12551404	     -3.21697750	     -1.94441913	      3.31731609	      0.05789809	      4.05164963	     -9.88049021	     -7.49999987	     -0.31901957	     -7.03749285	     -2.32151315	      2.45392943	      0.04282915	      2.94173122	      1.70019230	     -7.49999987	      0.49811431	     -4.19918301	     -2.75086663	   -344.97342379	    -33.62988654	   -415.81562625	     60.69511627	     67.33347211	      6.89855354	    -12.97609871	    -50.90571040	     30.95204180	     88.48043490
      5.65000000	     -2.50330124	     -0.57967654	      0.94932460	      0.26163151	      0.93604829	     -0.01110449	      1.10338949	     -3.40911959	     -1.96457791	      3.34297037	      0.05834584	      3.94351276	     -9.76621613	     -7.49999987	     -0.47490620	     -6.85068845	     -2.36353394	      2.46320138	      0.04299097	      2.96311690	      1.55065004	     -7.49999987	      0.11111090	     -4.08637004	     -2.91947244	   -346.28658267	    -31.19001618	   -415.38995028	     59.82601039	     67.29945290	      6.60447874	    -11.96472570	    -50.72652918	     30.59340890	     88.52775277
      5.66666670	     -2.24771396	     -0.54498185	      0.82320723	      0.26573470	      0.93642188	     -0.00681234	      0.87895743	     -3.41297914	     -1.81046398	      3.33353139	      0.05818110	      3.97923646	     -9.64038287	     -7.49999987	     -0.79006911	     -6.83458512	     -2.40262077	      2.49124182	      0.04348037	      2.91669545	      1.37152128	     -7.49999987	     -0.19136294	     -4.02527753	     -3.06542482	   -347.61772878	    -28.93807386	   -415.00381748	     58.97788016	     67.23892205	      6.36481661	    -11.31635164	    -50.48227335	     30.39964883	     88.57830464
      5.68333330	     -2.02717018	     -0.53973258	      0.67236012	      0.26577316	      0.93635271	     -0.00619489	      0.69985978	     -3.40092108	     -1.86166980	      3.40136923	      0.05936509	      3.91752812	     -9.42354360	     -7.49999987	     -1.12233664	     -6.85251568	     -2.24573384	      2.43966696	      0.04258022	      2.71473124	      0.82170994	     -7.49999987	     -0.45438458	     -3.90837356	     -2.69538419	   -349.53963675	    -26.94451902	   -414.43326128	     58.05265239	     65.06669386	      6.59582855	    -10.67948019	    -47.76378093	     29.48293438	     86.05306419
      5.70000000	     -1.75426165	     -0.54449735	      0.51940922	      0.26539342	      0.93683311	     -0.00618423	      0.44801519	     -3.39594865	     -1.81116100	      3.44172931	      0.06006951	      3.92484677	     -9.14733898	     -7.49999987	     -1.48571239	     -6.86410571	     -2.34993048	      2.46592620	      0.04303853	      2.74830322	      0.66275896	     -7.49999987	     -0.86715539	     -3.72411526	     -2.24207214	   -351.40743286	    -24.96421047	   -414.61392673	     57.76572573	     63.46054396	      6.58938878	     -9.88271962	    -45.14866144	     29.28029719	     85.11517135
      5.71666670	     -1.43996361	     -0.56479320	      0.52093707	      0.26556953	      0.93690290	     -0.00567437	      0.06741505	     -3.35649925	     -1.91966139	      3.40535950	      0.05943474	      3.94974549	     -8.85751269	     -7.49999987	     -1.84446415	     -6.91366614	     -2.31643266	      2.53897350	      0.04431345	      2.80049213	      0.50114435	     -7.49999987	     -1.23063762	     -3.48347795	     -3.87744483	   -350.91277912	    -23.27956039	   -411.27930764	     55.75182424	     62.43100723	      4.72552226	     -8.89884625	    -45.21847305	     30.54962572	     82.21485051
      5.73333330	     -1.29284161	     -0.55974070	      0.35685034	      0.26504764	      0.93730075	     -0.00571867	      0.00320308	     -3.36866983	     -1.67000914	      3.52246674	      0.06147864	      3.92626741	     -8.92454850	     -7.49999987	     -1.99004380	     -6.88345741	     -2.32537134	      2.63184475	      0.04593436	      2.68838634	     -0.02823381	     -7.49999987	     -1.46637034	     -3.30029722	     -1.97799950	   -353.60438108	    -21.28315579	   -413.91626388	     55.81174051	     61.25598408	      6.21459111	     -8.15387388	    -42.13948571	     27.84280480	     83.08048995
      5.75000000	     -0.90922214	     -0.57038607	      0.31970107	      0.26509558	      0.93752725	     -0.00528310	     -0.40856254	     -3.34316048	     -1.57664784	      3.52838746	      0.06158198	      3.82442409	     -8.94053895	     -7.49999987	     -2.37116552	     -6.87696963	     -2.30297545	      2.72742819	      0.04760260	      2.75942450	     -0.21468964	     -7.49999987	     -2.02458683	     -3.14954616	     -2.83090601	   -353.66408313	    -19.67199900	   -412.17353112	     53.88087843	     60.73611030	      5.44970270	     -7.35876204	    -42.18812777	     28.26229555	     81.13314931
      5.76666670	     -0.81109381	     -0.54477266	      0.17988465	      0.26473357	      0.93767363	     -0.00537551	     -0.44627213	     -3.37977073	     -1.50124800	      3.59057100	      0.06266729	      3.89114679	     -8.82813797	     -7.49999987	     -2.49207614	     -6.79228264	     -2.25005016	      2.71010156	      0.04730020	      2.76655466	     -0.48747979	     -7.49999987	     -2.18267659	     -2.98099527	     -1.82892091	   -356.06551512	    -17.55842729	   -413.78542959	     54.02094443	     60.42860651	      6.39986335	     -6.82475012	    -40.10017358	     26.47302308	     82.06937613
      5.78333330	     -0.68436318	     -0.46753418	     -0.04701882	      0.26475832	      0.93737242	     -0.00479245	     -0.49592632	     -3.47659735	     -1.38467255	      3.63165609	      0.06338436	      4.00493342	     -8.82069092	     -7.49999987	     -2.65043585	     -6.65489720	     -2.28075766	      2.69551707	      0.04704565	      2.74521622	     -0.78069208	     -7.49999987	     -2.33635695	     -2.88147374	     -2.17555315	   -356.76219362	    -15.81401358	   -412.78479944	     52.55831679	     60.20518844	      6.44906365	     -6.17524655	    -40.19187992	     25.65888068	     81.13880700
      5.80000000	     -0.41143089	     -0.44249756	     -0.19256154	      0.26880411	      0.93493471	     -0.00081711	     -0.87344585	     -3.41122550	     -1.25247527	      3.54996526	      0.06195858	      4.04149834	     -8.83744644	     -7.49999987	     -3.08345154	     -6.63256999	     -2.06595017	      2.52882771	      0.04413637	      2.78188341	     -0.91472424	     -7.49999987	     -2.63782079	     -2.72851807	     -2.16981767	   -357.98890953	    -13.97843638	   -412.24351238	     51.28953390	     60.29500227	      6.61416024	     -5.44192706	    -39.62606404	     24.88386119	     81.50169006
